<svg xmlns="http://www.w3.org/2000/svg" viewBox="0 0 1200 520"><rect width="1200" height="520" rx="18" fill="#f8fafc"/><text x="30" y="48" font-family="Arial,sans-serif" font-size="26" font-weight="700" fill="#1f2937">Google Search Console</text><text x="30" y="78" font-family="Arial,sans-serif" font-size="16" fill="#64748b">Anonymized performance snapshot · Last 3 Months</text><rect x="30" y="105" width="270" height="130" rx="8" fill="#4285F4"/><text x="50" y="138" font-family="Arial,sans-serif" font-size="16" fill="#fff">Total clicks</text><text x="50" y="194" font-family="Arial,sans-serif" font-size="38" font-weight="700" fill="#fff">4.29K</text><rect x="315" y="105" width="270" height="130" rx="8" fill="#673AB7"/><text x="335" y="138" font-family="Arial,sans-serif" font-size="16" fill="#fff">Total impressions</text><text x="335" y="194" font-family="Arial,sans-serif" font-size="38" font-weight="700" fill="#fff">73.7K</text><rect x="600" y="105" width="270" height="130" rx="8" fill="#fff" stroke="#d9dee7"/><text x="620" y="138" font-family="Arial,sans-serif" font-size="16" fill="#334155">Average CTR</text><text x="620" y="194" font-family="Arial,sans-serif" font-size="38" font-weight="700" fill="#334155">5.8%</text><rect x="885" y="105" width="270" height="130" rx="8" fill="#fff" stroke="#d9dee7"/><text x="905" y="138" font-family="Arial,sans-serif" font-size="16" fill="#334155">Average position</text><text x="905" y="194" font-family="Arial,sans-serif" font-size="38" font-weight="700" fill="#334155">4.8</text><rect x="30" y="255" width="1140" height="235" rx="10" fill="#fff" stroke="#e2e8f0"/><g transform="translate(30 255)"><line x1="60" y1="30" x2="1140" y2="30" stroke="#e5e7eb"/><line x1="60" y1="85" x2="1140" y2="85" stroke="#e5e7eb"/><line x1="60" y1="140" x2="1140" y2="140" stroke="#e5e7eb"/><line x1="60" y1="195" x2="1140" y2="195" stroke="#e5e7eb"/><path d="M60 205 L168 186 L276 198 L384 170 L492 160 L600 150 L708 128 L816 108 L924 88 L1032 62 L1140 82" fill="none" stroke="#4285F4" stroke-width="5" stroke-linecap="round"/><path d="M60 190 L168 174 L276 185 L384 148 L492 166 L600 136 L708 118 L816 136 L924 92 L1032 78 L1140 58" fill="none" stroke="#673AB7" stroke-width="5" stroke-linecap="round"/><text x="60" y="225" font-family="Arial,sans-serif" font-size="15" fill="#64748b">Performance trend</text><circle cx="1010" cy="225" r="5" fill="#4285F4"/><text x="1022" y="231" font-family="Arial,sans-serif" font-size="14" fill="#475569">Clicks</text><circle cx="1090" cy="225" r="5" fill="#673AB7"/><text x="1102" y="231" font-family="Arial,sans-serif" font-size="14" fill="#475569">Impressions</text></g></svg>